<svg width="31" height="31" viewBox="0 0 31 31" fill="none" xmlns="http://www.w3.org/2000/svg">
<path d="M17.9167 3.41666H8.25001C7.60907 3.41666 6.99438 3.67127 6.54117 4.12448C6.08796 4.57769 5.83334 5.19238 5.83334 5.83332V25.1667C5.83334 25.8076 6.08796 26.4223 6.54117 26.8755C6.99438 27.3287 7.60907 27.5833 8.25001 27.5833H22.75C23.3909 27.5833 24.0056 27.3287 24.4588 26.8755C24.9121 26.4223 25.1667 25.8076 25.1667 25.1667V10.6667L17.9167 3.41666Z" fill="#D9D9D9" stroke="#297B7A" stroke-width="2.41667" stroke-linecap="round" stroke-linejoin="round"/>
<path d="M17.9167 3.41666V10.6667H25.1667" stroke="#297B7A" stroke-width="2.41667" stroke-linecap="round" stroke-linejoin="round"/>
<path d="M20.3333 16.7083H10.6667" stroke="#297B7A" stroke-width="2.41667" stroke-linecap="round" stroke-linejoin="round"/>
<path d="M20.3333 21.5417H10.6667" stroke="#297B7A" stroke-width="2.41667" stroke-linecap="round" stroke-linejoin="round"/>
<path d="M13.0833 11.875H11.875H10.6667" stroke="#297B7A" stroke-width="2.41667" stroke-linecap="round" stroke-linejoin="round"/>
</svg>
